<svg t="1699948719227" class="icon" viewBox="0 0 1024 1024" version="1.1" xmlns="http://www.w3.org/2000/svg" p-id="11991" width="200" height="200"><path d="M400 176.992q-28.992 8-52.512 18.016t-40.512 20-39.008 25.504-39.488 31.008-36 36.992-35.488 46.496-27.488 47.008-18.016 43.008-11.488 35.008-8 40-4 70.496 2.496 62.496 6.016 32 8.512 31.488 8.992 27.488 11.488 26.016 22.016 40.512 30.496 44.512 35.008 39.008 40.992 36 47.488 32 47.008 24.512 47.008 16.992 47.008 11.008 69.504 3.488 56.992-0.992 34.496-6.496 46.496-12.512 47.488-19.008 46.496-24.992 38.496-27.488 36.512-32.992 28.512-30.496 18.496-23.488 8.992-14.016 15.008-26.016 20-36.992 12-31.008 8.992-28.992 7.008-31.008 4.992-28 0.992-52.992-0.992-53.504-4.512-26.016-7.008-31.008-11.008-35.008-14.016-35.008-17.504-32.512-20.512-32.512-27.488-34.496-29.504-32-24-21.504-27.008-20-30.016-19.488-42.496-20.992-43.488-16.992-32.992-8.992-30.016-6.016-62.016-2.496-69.504 3.488-50.016 11.488z m55.488 23.52q-8.512 1.504-12 4t-3.488 4.512l10.016 8.992q-0.992 2.016-4 3.488t-5.504 1.504-2.496-2.496-1.504-2.496-6.496 3.008-6.496 8 1.504 9.504 4.512 4.512 4.992-3.488 4-4.512 3.008-0.992 2.496 4.512 4.992 4 3.488 1.504-2.016 2.496-3.008 1.504-2.016 4.512 0.992 4 3.008 2.496 2.016 3.008-3.488 2.496-8.992 3.008-4.992 4.992 7.488 4.512 4 0.512 10.496-5.504q4-0.992 14.016-2.496t12.992-2.496q2.016-10.016-4.512-10.016t-15.488 0.992q0-2.016 3.008-4.512t3.488-3.008 0.512-3.488-4.992-3.488-3.008-3.008 5.504-4.512 4.512-7.008q20.992-7.008 21.504-8t-3.488-5.504-14.496-3.488-11.008-6.016-8.992-5.504zM560 202.496q-6.016 3.488-7.008 8.992t4 4.512 11.008-0.512 6.496-4.992-4-8.512-10.496 0.512z m36 10.496q-4.992 0-7.488 2.016t-2.496 3.488 3.488 4.992 6.496 3.008 6.016-4.512 0.992-6.496-7.008-2.496z m-44 9.504q-4.992 5.504-5.504 11.488t-3.008 6.496-3.488 0.512-2.496-1.504-4 2.016-3.008 4.512 0.512 3.488 4.512 2.496 1.504 2.016l-2.496 2.496v3.488l2.496 3.008q8-8.992 8.992-10.496t5.504-2.016 4.512 2.016-2.496 3.008-3.488 3.488-0.512 4l2.496 4.992 4 4q11.008-28.992 8-34.016 4.992-8.992 6.016-10.016t0-4.512-7.008-4.992-11.008 4z m32.992 7.52h-12q-2.016 2.016 0 6.016 36.992-3.008 38.016-4t-0.512-3.488-10.496-0.512-15.008 2.016z m-137.504-0.512q3.488-2.496 10.496-6.496t11.008-4 3.008 2.016-2.016 2.496-6.016 1.504q-8.992 16-10.016 16t0-4 0-4.512-5.504-0.512-0.992-2.496z m126.528 23.488q-2.016 4.992-6.016 6.496t-3.488 3.488 4.992 2.496 4.992-1.504 10.496-15.008q3.008 0 2.016 4t-0.512 10.496 6.496 11.488q3.008 3.008 7.488 4.512t7.488-4.512q0.992-3.008 0.992-6.016v-4.512l-2.496-2.496-6.016 3.008-7.488-1.504 0.992-12.512 3.008-11.008h-15.488l-5.504 4-2.016 8.992z m-241.024-3.488q0 7.488 2.496 8.512t2.016 3.008-2.496 4-2.016 4.512 0.992 3.488 2.016 0.992 2.496-1.504 3.488-4.992 6.016-6.496q4.992-4 8.992-5.504t4.992-5.504-0.992-4-5.504 2.016-4.992-2.016-9.504-4-8 7.488z m350.016 10.496q0.992 4 0.992 10.016-12-3.008-13.504-3.488t-3.488 2.496 0.512 10.016-4.512 8-12.512-0.512-7.008 0-1.504 2.496 4.512 4.992 12.512 4 18.016-4.992q6.016 20 11.488 30.016t15.008 11.008 10.496 0 0.992-3.008q-10.016-10.016-15.488-19.488t-10.496-23.488l20-0.992q2.016-2.016 1.504-5.504t-2.016-4-10.496-5.504h6.016l6.016-0.992q6.016-3.008 8-8t-6.016-8q-7.008-2.016-14.016-3.008l-14.016-2.016q-2.016 6.016-0.992 10.016zM304.512 259.008q-0.512 7.008-3.488 18.016 7.008 7.008 10.016 11.008t2.016 14.016q-0.992 6.016-7.008 7.008t-2.496 5.504 4.512 4.512 3.008-1.504 2.496-3.008 2.496-1.504 2.496 3.008 0.992 4 2.496 2.496 3.008 1.504 1.504-4-0.992-8 0.512-8 3.008-4 3.008 3.008-0.512 2.016-3.488 0.992 4.992 8.512 8 5.504 2.016-2.496 0.512-3.488-0.512-4.992q-0.992-4-8.512-20.992t-11.488-22.016h-3.008v-3.008l2.016-4-1.504-4-8.512-3.008-7.488 7.008z m44.992 9.504q-0.512 3.488-8.512 8.512 3.008 30.016 4.512 31.008t5.504-0.992 1.504-10.496-2.016-12.992 5.504-1.504 8.512 12.992 14.496 4 11.008-10.016-0.992-4.992-8.992-10.016q-3.008 0.992-2.016 3.008t0.992 3.008-0.512 3.008-6.496 1.504-8.512-4-2.496-15.488q-4-3.008-7.488-1.504t-4 4.992z m52.992 52.992Q348.992 344 308.992 384t-62.496 92.992-22.496 113.504T246.496 704t62.496 92.992 93.504 62.496 113.504 22.496 112.992-22.496 92.992-62.496T784.48 704t22.496-113.504-22.496-113.504T721.984 384t-92.992-62.496-112.992-22.496-113.504 22.496z m-174.496 10.496l-6.016-4q-10.016 6.016-11.008 7.008t-0.992 5.504 0.992 5.504 5.504 0.512 4.512 2.496Q208 368.032 208 370.016t2.496 4 8.512 0.992q2.016-8 4.512-15.008t6.496-14.016q4-8 9.504-12t8-7.488 1.504-4.992T245.024 320z m579.008-3.488q-4 8.512-12.992 15.488-4 0.992-11.488-5.504t-9.504-8.512q-6.016 0.992-6.496 1.504t-2.496 6.496l12 14.016-2.016 4h-14.016l-4.992-3.488-6.496-2.496-3.008 8 11.488 8 22.016-0.992q-3.008 12.992-3.008 30.016t18.016 19.008q0-12.992-1.504-24t-1.504-23.008q2.016-3.008 4.992-3.008t6.496 2.496 6.496 3.488 5.504-3.008 0.512-6.496-6.496-4.992-4-4 4-1.504 4.512-0.512 4.992-6.496q-7.008-23.008-11.008-14.496z m-570.016 20.992q-4.992 11.488-7.008 18.496 12 12 15.008 10.496t6.496-1.504 5.504 2.496-0.512 4.992-0.992 4 7.008 1.504 6.496-0.992 0.512-10.016-8.992-11.008-6.496-27.008q-2.016-4-7.008-3.488t-10.016 12z m37.504-0.512q-8.512 2.016-11.008 7.488t-0.992 7.008 8.512 2.016 9.504-8.992-6.016-7.488z m192.512 85.024l-2.016 4-52 8.992 0.992 2.016 52 12 4 31.008-55.008 28q6.016 3.008 4.992 2.016t7.008 0q16 2.016 31.488 8.512t24.512 20.512q8 16 3.008 37.504t-8.992 35.488q-12 43.008-22.016 72.992t-24.992 72.992l70.016-107.008 3.008-0.992-8.992 16 3.008 6.016-35.008 100.992q2.016 4 18.496-11.488t22.496-30.016 86.016-136.512q32.992-48 62.496-91.488t61.504-91.488q0.992-4-2.016-6.016l-68 32-4.992 0.992 32.992-51.008q0.992-4-0.992-4L480 487.04l4.992-27.008 51.008-11.008-3.008-2.016-48-8.992-7.008-47.008-3.008-3.008z m-226.016-35.008q-0.992 2.016 3.008 6.016t6.496 3.488 2.016-7.008-1.504-7.008-4.992 0.992-4.992 3.488z m-61.504 24.48q-0.512 0.512-0.512 3.488t-1.504 3.008-6.016-3.488-7.008-1.504-3.488 5.504 3.008 8.992 4.512 3.008 7.488 0.512q2.016 0.992 3.488 3.008t2.496 3.008q16 10.016 26.496 8t12.512-12-2.496-12.512-7.488-1.504-3.488 2.496-1.504 6.496-5.504 4.992-4.992-0.512-4-4.512-2.016-8 1.504-5.504-1.504-4.512-3.488-3.008-4 2.016z m669.024 15.52q0.512-2.016-2.016-4t-3.488-1.504-11.008 1.504q-3.008 3.008-3.008 6.016l12.992 11.008q-4.992 8-2.496 10.496t-2.016 3.008-4.992-4-0.992-5.504-3.008-3.488-4.512-0.992-2.016 4.512 0.512 4 3.488 4.992 3.008 6.016-4.512 2.496-6.496-2.496-2.496-5.504-1.504-3.008-4 2.496-4 3.488-2.496 4.992 3.488 9.504 10.496 2.016 11.488-3.488 8 4 2.016 5.504 2.496 2.496 4.512-2.496-0.992-9.504 0-5.504 6.496 3.488 8.512 4.512q3.008 11.008 3.488 12t3.488 4 4 3.008 3.008-3.008 2.016-6.496-2.496-5.504-1.504-4.992q30.016 3.008 30.016-1.504t-1.504-7.008-5.504-4-4.992 0.992-3.008 2.496-4-4-3.008-4.512 4.512 0.512 7.008-0.512 1.504-4.512-1.504-4.992-6.016-1.504-6.496-2.496-0.992-4.992 0.512-4-4-1.504-9.504 3.488-9.504 3.488-0.512-2.496 9.504-4.512 8-5.504-2.496-6.016q-22.016 11.008-21.504 8.992z m-641.504 60.48q-0.992 0.512-4.992-13.504-0.992-2.016-0.512-4t0.512-4q-4-4.992-11.008-8.992t-11.008-7.008q-4.992-4-6.016-6.016t-11.008-0.992q-2.016 0.992-3.008 2.016t-2.016 3.008q-6.016 8.992-1.504 12.512t8.512 4.512 4 7.008 1.504 7.008 3.008 0.992 4.512-3.008 10.496-1.504 5.504 7.488-0.512 11.008 6.016 4.992 6.496-6.016 0.992-5.504z m189.984-24.992q-31.008 9.504-56.992 28.512-7.008 6.016-14.016 12.512t-14.016 12.512q-14.016 20.992-18.496 38.496t2.496 42.496l86.016 0.992 0.992-2.016q-7.008-48 12-87.008t64.992-58.016q-0.992-2.016-16.512 0t-46.496 11.488z m469.024-2.496q-2.016 0-0.992-2.496t6.496-2.016 4.992 3.008-4 0-4-0.512-2.496 2.016z m-236 82.016q2.016 15.008 2.016 28.992t-3.008 28.992h76.992q2.016-4 4-8.512t3.008-8.512q4.992-27.008-10.016-52.512t-38.016-38.496z m-202.016-5.024q-0.992 3.008 0.992 4.992 12.992 0.992 26.016 4t19.488 3.488 6.496-0.512-6.016-6.016l-36-6.016 18.016-8.992-0.992-4z m-133.984 89.024l2.016 2.016 171.008-0.992 4-22.016H301.024z m277.984 1.984h136.992l2.016-2.016-8-20.992h-116z m-244 12.992h71.008q0.992-3.008-3.008-8.992H320.992z m284 0h63.008l8.992-7.008-68-2.016q-4.992 8-4 8.992z m-320 28l163.008-0.992 7.008-20-2.016-3.008H297.984z m251.008-1.984l0.992 2.016H720l0.992-2.016-8.992-22.016h-154.016z m301.504 12.48q2.496-0.512 3.008 0.512t2.496 4-0.512 4-3.488 0.992-3.488-1.504-7.488 10.496q4.992-2.016 16.992-4.512t11.488 1.504 0.992 4 3.488-6.016-2.496-4.512-10.496-4-7.008-10.016-2.016-4.512-2.496 4.992 0.992 4.512z m-453.504-2.496l48.992 12.992q8.992-0.992 10.016-7.008l-15.008-10.016h-47.008z m152 13.024q-0.992 2.016 0.992 3.008l72.992-19.008-38.016-0.992z m-366.016 2.976q-8 4-11.008 1.504t-3.008 2.016 4 11.008 8.512 6.496 6.016-3.008 2.496-3.008 5.504-0.512 6.016-4.512 0.992-5.504-5.504-13.504q-2.016-2.016-4 1.504t-10.016 7.488z m637.024 49.024q2.016 3.008 4 3.488t0.992-2.016-0.512-4 3.488-1.504q20 14.016 22.496 8.512t-1.504-5.504-5.504-0.992-12.512-8q-2.016-2.016 0-4t4-2.016 0.992-1.504-7.008-1.504zM198.496 752q-6.496 3.008-14.496 4l11.008 18.016q8.992-0.992 8-2.496t-3.488-0.992-3.008-0.512-2.496-3.488 0.992-6.016 4.992-3.488 3.008 1.504 0.992 5.504 3.488 0.992 0.992-4.512-3.008-2.016-0.992-2.496 2.016-3.488 4-1.504 3.488 3.008 0.992 6.496 4.992-0.512l-8.992-16.992q-3.008-2.016-4.512 2.016t-8 7.008z m589.504 36q7.008 0 12 3.488t8 6.016 2.496 4.992 1.504 0.992 2.496-2.016 2.016-3.488-2.496-3.488-11.008-4.512-7.008-12z m-561.984 11.008q-7.008 4-11.008 4t-3.488 2.016 4 4.992 3.488-0.992 6.496-8 10.496-4 3.488-2.016-0.992-3.008-2.496-3.488-2.496 2.016-7.488 8.512z m231.488 16q0.512 0.992 5.504 0.992v28.992l-6.016 4h16q-8-8-7.008-11.008t3.008-26.016q-2.016-3.008-7.008-0.512t-4.512 3.488z m49.984 19.008q6.496-14.016-6.496-24-12.992-4.992-18.016 8.992t16.992 16.992q-6.016 8-6.496 8.992t-4 1.504-4.512 2.016 7.488 0.512 15.008-15.008z m58.016 0.48q5.504-5.504 6.496-10.496 2.016-14.016-8.512-15.488t-12 5.504-0.512 7.008 2.016-2.496 6.016-2.496 6.016 0.992 0.992 6.496-5.504 11.488-13.504 14.016l24.992 0.992q2.016-6.016-0.992-7.008h-14.016z m-47.488-9.504q3.008 2.016 11.488 4.512t6.496 10.016-8.992 5.504-8.512 0 0 4 10.496 1.504 12-12-6.016-15.008-8.992-4.992 4.992-1.504h6.016l4-6.016-15.008-0.992z m244.992 6.496q8.992 0.512 15.488 0.512t6.496 2.016-1.504 3.488-6.496 1.504-3.008 2.496 3.488 2.496 3.488-1.504 8.992-12-26.016-3.488l-0.512-2.016 0.512-3.008 6.496-1.504 4-2.496-2.016-2.496-2.496-0.992-8.992 8 2.016 8.992z m-505.504-8.48q-2.496 0.992-14.496 12.992-4-0.992-4.512 0t3.488 4.512 4.992 3.488 0.512-2.016 2.016-4.512 4-2.496 4.992 3.008 0.992 5.504-3.008 3.488-3.008 0.512-2.496 0.992 3.008 4.512 4.512 3.008 0.512-4q20-16 16-20t-4.512-2.496-3.008 4.992-4.992 2.496-4.992-4 0-5.504l3.008-3.008h3.008l2.496-0.512-4.512-4.992-3.008-0.512-0.992 4.512z m473.504 28.48q-4 2.496-11.008 11.488 8.992 0 14.496 5.504t4.992 10.016 2.496 3.008 3.488-2.016 1.504-3.008-1.504-2.016-3.008-0.512-4.512-6.016q14.016 2.016 15.488 3.008t7.488-6.016l-16.992-2.016q0-8.992-4.512-11.488t-8.512 0z m-448.992 29.024q3.008 2.496 3.488 0.512t1.504-2.016 3.488-1.504 4.992 0.512 3.488 4.512-1.504 4.512 0.512 4.992 4.992 3.008 1.504-4.512 1.504-12 2.496-11.488-1.504-4q-28 15.008-24.992 17.504z m396 8.48q8.992 3.008 12.992 8.992t3.008 15.008l18.016-11.008q0-6.016-0.992-7.008t-1.504 2.016-6.016 4.992-7.008-1.504 0-4.512 4.992-1.504 1.504-4.512-3.008-4-0.992 2.016-1.504 3.488-4 0.992-3.008-0.992-1.504-3.008 1.504-4.512 3.488-2.016 4 0.512 1.504-2.016-3.488-2.496z m-338.528 10.496q-2.496 7.488-6.496 9.504t0.512 4 3.008-0.512-0.512-3.488 6.016-11.008h2.016q7.008 24.992 8 24 15.008-23.008 15.008-24t-4.512-3.008-4-0.512 0.512 4.512-2.016 6.496-4.992 4.512q-3.008-16.992-3.008-19.488t-4.512-4.512-3.488 2.016-1.504 11.488z m309.504 5.504l4.992 19.008q-7.008-3.008-7.488-4t-3.488-4-2.016-4.992-0.512-2.016-6.016 2.496 0 4 5.504 3.488 16 15.008q2.016-32.992 0.512-32.992t-7.488 4z m-244.992 7.008q-6.016-2.016-12 3.488t-6.496 15.008 9.504 12.512q3.008 0.992 6.496 0.512t6.496-0.512q0.992-7.008 0.992-8t2.496-2.016 2.496-2.016-3.008-2.496-4 0-3.008 6.496-11.008 3.008 0.992-16.512 13.504-5.504 4.512 9.504 2.016-4-1.504-6.016-8.512-3.488z m192.512 15.008q3.488 2.016 6.016 10.016t-0.512 11.488-2.016 4 6.496-0.992 2.016-4.512-6.016-10.496-0.512-11.008 0.512-3.488-5.504 1.504-0.512 3.488zM559.488 928q-2.496 0.992 1.504 3.008l0.992 14.016h-2.016l-16-16q-7.008 2.016-6.496 3.008t4 0.992 2.496 3.008 0 20q-3.008 3.008 2.496 2.496t2.496-2.496-2.496-3.008-0.512-12q7.008 0.992 7.488 2.496t10.496 12.512l3.008 0.992 0.992-28.992q-6.016-0.992-8.512 0z m-73.472 4.992q0 8.992 2.496 23.008t18.496 2.016q4-4.992 2.496-12t0.992-11.008-3.008-4-2.016 3.008 2.016 4.992-5.504 18.016q-7.008 0-10.016-3.008-0.992-15.008-2.016-16.512t2.496-4-2.496-3.008-4 2.496z m192-726.496q76 32.512 132.992 89.504t89.504 132.992 32.512 161.504-32.512 162.016-89.504 132.992-132.992 88.512-162.016 32-162.016-32-133.504-88.512-90.016-132.992-32.512-162.016 32.512-161.504T220.48 296t133.504-89.504 162.016-32.512 162.016 32.512z m-116 22.016q0 1.504-3.488 0.992t-3.488-2.016 1.504-2.016 3.488 0.512 2.016 2.496z m-251.52 48.48q-1.504 0-2.496-0.992t0.512-2.496 3.008-1.504 0.992 2.496-2.016 2.496z m12 7.52q-0.512 0.512-3.008 0.512t-2.496-3.008 1.504-3.008 3.008 2.496 0.992 3.008z m302.016 48.992q51.488 21.504 89.504 60t60 88.992 22.016 108-22.016 108.512-60 88.992-89.504 59.488-108.992 21.504-108.512-21.504-89.504-59.488-60-88.992-21.504-108.512 21.504-108 60-88.992 89.504-60 108.512-21.504 108.992 21.504zM240 364q-0.992 0-0.992-0.992t1.504-1.504 0.992 0.992-1.504 1.504z m235.008 402.016l-2.016-0.992 36.992-108.992-2.016-4.992 126.016-196.992q4-0.992 4 4l60-28.992 6.016-0.992z m395.008-313.504q-0.992 0.512 0-0.512t3.488-0.992 0 0.512-3.488 0.992z m-10.528 3.488q-1.504 0.992-0.512-0.992t6.016-2.016 0.512 0.992-6.016 2.016z m-1.472 14.016q-3.008 0-5.504-1.504t-3.008-2.496-2.496-3.488-2.016-3.488 2.016-0.992zM191.008 712.512q-2.016 2.496-4.512 1.504t-4-3.488-0.512-3.488 4.992-1.504 4.992 2.016-0.992 4.992z m-12 6.496q-0.992 0.992-4 0.992t-4.992-3.488 1.504-5.504 4.992-2.016 2.496 4.512 0 5.504z m323.008 101.984q0 0.992-0.512 4.512t-4.512 4-4.992-0.512-2.016-7.008 0.512-7.488 4.512-1.504 4.992 3.488 2.016 4.512z m236.992 42.016q-0.992 2.016-3.008 2.016t-4.512-3.488-1.504-4.512 4.512-0.992 4.512 2.496 0 4.512z m-440.992 12q-3.008-0.992-1.504-2.496t4-1.504 1.504 2.496-4 1.504z" p-id="11992" fill="#1296db"></path></svg>